<svg id="Layer_1" data-name="Layer 1" xmlns="http://www.w3.org/2000/svg" viewBox="0 0 467 467">
  <defs>
    <style>
      .cls-1 {
        fill: #509f73;
        stroke: #3c180a;
      }

      .cls-1,
      .cls-10 {
        stroke-miterlimit: 10;
      }

      .cls-2 {
        fill: #e05126;
      }

      .cls-3 {
        fill: #ededed;
      }

      .cls-4 {
        fill: #3c180a;
      }

      .cls-10,
      .cls-5 {
        fill: none;
      }

      .cls-6 {
        opacity: 0.9;
      }

      .cls-7 {
        fill: #fff;
      }

      .cls-8 {
        fill: #f26747;
      }

      .cls-9 {
        fill: #f18251;
      }

      .cls-10 {
        stroke: #231f20;
        stroke-width: 20px;
      }

      .cls-11 {
        fill: #3b190f;
      }
    </style>
  </defs>
  <ellipse class="cls-1" cx="233.5" cy="233.5" rx="223.5" ry="222.18" />
  <path class="cls-2"
    d="M443,370.91c-1.64-2-2.22-5.33-3.22-7.81-1.22-3-2.51-6.25-3.95-9.13-2.21-4.47-5.3-8.38-8.19-12.2-2.65-3.5-4.52-8.12-6.38-12.31a24,24,0,0,1-1.73-5.52c-.58-4.17-1.38-8.39-2.16-12.57-1.53-8.13-3.71-17-7.59-23.93-3-5.35-3.72-12.13-6.8-17.46a68.15,68.15,0,0,0-6.45-9.08c-2-2.42-3.78-5.06-5.76-7.44-4.5-5.39-6.26-13.71-9.59-20.07-1.33-2.53-3.14-4.7-4.55-7.17-1.05-1.81-2-3.72-3-5.54a53.14,53.14,0,0,0-5.83-8.35,41.12,41.12,0,0,0-8.29-7.38c-4.12-2.75-8.71-4.4-12.79-7.19-4.9-3.36-10.37-6.14-14.15-11.44-1.56-2.19-3.23-4.27-4.83-6.5-2.08-2.88-4.1-5.74-6.1-8.67-1.23-1.8-2.59-3.6-3.7-5.52-1.93-3.33-3-6.76-4.44-10.36s-2.79-7.29-4.39-10.78a26,26,0,0,0-2.92-4.25c-1-1.43-1.54-3.42-2.43-5a18.53,18.53,0,0,0-3.9-5.24c-1.91-1.69-3.62-3.49-5.41-5.39-1.19-1.26-2.55-2.32-3.65-3.7-1.58-2-2.61-4.62-3.91-6.87a48.41,48.41,0,0,0-3.88-6c-1.13-1.42-2.6-2.06-4-3-3.07-2.2-6-4.74-9.07-6.94a20.1,20.1,0,0,0-5.07-3,58.36,58.36,0,0,0-8.45-1.64c-2.36-.39-5.55-.82-7.55,1s-2.31,4.51-3.74,6.66a12.8,12.8,0,0,1-5.57,4.75c-3.66,1.4-7,3.71-10.6,5.36-2.69,1.24-5.56,1.73-8.11,3.45a16.24,16.24,0,0,0-2.18,2.06,42.87,42.87,0,0,0-3.44,3c-2.83,3.45-5.92,6.65-9,9.77-1.62,1.65-2.78,3.32-4.65,4.6a24.63,24.63,0,0,0-2,1.81c-1.15,1-2.54,1.5-3.73,2.4a37.77,37.77,0,0,0-4.51,4.19c-.86.91-1.55,2-2.47,2.79s-2,1.66-2.93,2.65a39.43,39.43,0,0,1-4.87,5,36,36,0,0,0-5.37,4.93,40.07,40.07,0,0,0-3.15,4.18c-1.38,2.11-2.9,4-4.41,6-2.28,3-3.71,6.9-6.1,9.91-2.15,2.69-4.73,5.17-6.33,8.39-1.09,2.22-3,3.37-4.8,4.51a7.77,7.77,0,0,0-3.9,5.75c-.47,2.17-.84,4.13-2.3,5.63a30.45,30.45,0,0,1-6.12,4.84c-1.73,1-3.18,2.42-4.88,3.44-2.07,1.24-3.31,3-4.89,4.9a17.67,17.67,0,0,0-2.93,5c-.31.76-.57,1.67-.93,2.39-.73,1.43-2,2.43-2.86,3.75-1.4,2.18-2.59,4.41-3.91,6.65s-3.27,4-5,6a12.56,12.56,0,0,0-2.49,3,11.88,11.88,0,0,1-2.37,3.63,45.74,45.74,0,0,0-4.2,5.65c-.86,1.3-2.18,2.28-2.9,3.7-.84,1.68-1.26,3.87-2,5.66-1.68,4.23-5.76,6.23-6.85,10.84-.43,1.81-.51,2.57-1.71,3.76a26.31,26.31,0,0,0-2.08,2.37,51.14,51.14,0,0,0-4.4,5.83,10.39,10.39,0,0,0-1.84,5.74,30.25,30.25,0,0,1-.09,4.47,12.57,12.57,0,0,1-2.61,5.21,32.62,32.62,0,0,1-2.38,2.33c-1.1,1.14-2,2.5-3.19,3.57A19.53,19.53,0,0,0,70,310.86c-.78,1.61-1.15,3.5-2,5.06-1,1.84-1.7,3.88-2.65,5.74s-.9,3.58-1.57,5.5a29,29,0,0,1-3.45,6.53,29.83,29.83,0,0,0-2,2.74c-.45.92-.4,2-1.26,2.64"
    transform="translate(-20.78 -9.24)" />
  <path class="cls-3"
    d="M331.72,188.3c-1.56-2.19-3.23-4.27-4.83-6.5-2.08-2.89-4.11-5.74-6.11-8.67-1.22-1.8-2.58-3.61-3.69-5.52-1.93-3.33-3-6.76-4.45-10.36s-2.78-7.29-4.38-10.78a26,26,0,0,0-2.92-4.25c-1-1.43-1.54-3.42-2.43-5A18.72,18.72,0,0,0,299,132c-1.91-1.69-3.62-3.49-5.42-5.39-1.19-1.26-2.54-2.32-3.65-3.7-1.57-2-2.6-4.62-3.9-6.87a48.41,48.41,0,0,0-3.88-6c-1.13-1.42-2.61-2.06-4-3-3.07-2.2-6-4.74-9.07-6.94a20,20,0,0,0-5.08-3,56.67,56.67,0,0,0-8.44-1.64,13.87,13.87,0,0,0-5.23-.13A34.89,34.89,0,0,1,256.11,113a27.8,27.8,0,0,1-2.78,13.28c.23,1.26.43,2.54.65,3.84,1.42,8.57,7.32,14.4,10.82,22.18,1.72,3.82,3.41,7.77,7,10.26s7.69,3.49,11.54,5.13A41.38,41.38,0,0,1,300.49,182c8.88,12.39,7.59,26.83,11.62,40.77a36.93,36.93,0,0,0,1.95,5.21,33,33,0,0,1,12.7-15,38,38,0,0,1,4.76-6.42,26.26,26.26,0,0,1,6.28-5,32.16,32.16,0,0,1,3.52-4.84C337.81,194.46,334.35,192,331.72,188.3Z"
    transform="translate(-20.78 -9.24)" />
  <path class="cls-4"
    d="M445.14,369.65c-1.49-2-1.93-4.42-2.77-6.7-1-2.71-2.16-5.39-3.35-8-2.44-5.41-5.95-9.92-9.43-14.67a41.66,41.66,0,0,1-4-7.17,57.43,57.43,0,0,1-3.13-7.57,80.45,80.45,0,0,1-1.59-8.9c-.52-2.95-1.06-5.9-1.67-8.83a88.33,88.33,0,0,0-4.9-16.72c-1-2.45-2.45-4.73-3.49-7.18s-1.81-5.36-2.68-8A47.94,47.94,0,0,0,399.78,261c-3.51-4.48-7.61-8.86-10.14-14-2.31-4.66-3.71-9.72-6.06-14.36-1.27-2.52-3-4.72-4.48-7.12s-2.69-5.11-4.19-7.58a48.56,48.56,0,0,0-11.32-13.07c-4.64-3.65-10.13-5.7-15-8.89-4.28-2.79-8.93-5.41-12.41-9.21a84.7,84.7,0,0,1-5.59-7.32c-2-2.64-3.83-5.32-5.69-8-1.61-2.33-3.35-4.62-4.77-7.08a59.36,59.36,0,0,1-3.66-8.42c-1.15-2.94-2.3-5.88-3.49-8.8a33.6,33.6,0,0,0-4.21-7.63c-1.55-2.09-2.26-4.67-3.61-6.89a30.37,30.37,0,0,0-5.27-6c-2.1-2-4.15-4.15-6.2-6.23s-3-4.59-4.29-7a34.74,34.74,0,0,0-5-7.57c-2-2-4.72-3.38-6.93-5.11-4.65-3.65-9-7.59-15-8.76-4.5-.87-10.92-2.73-14.88.48-2.1,1.7-2.76,4.18-3.95,6.48a11.18,11.18,0,0,1-5.92,5.14c-2.69,1.14-5.18,2.65-7.76,4s-5.48,2.15-8.18,3.39-4.35,3.3-6.56,5.08-4.08,4.41-6.09,6.58-4.29,4.44-6.37,6.73a29.7,29.7,0,0,1-6.5,5.44,29.4,29.4,0,0,0-6.38,5.34c-.93,1-1.72,2.11-2.71,3s-2.17,1.83-3.14,2.89a57.16,57.16,0,0,1-5.93,5.82,34.72,34.72,0,0,0-5.71,5.91,114.53,114.53,0,0,0-9.66,14.2c-2.61,4.72-6.57,8.37-9.25,13-1.2,2.09-3.48,3-5.28,4.44a10.05,10.05,0,0,0-3.25,5c-.77,2.57-.86,4.65-2.9,6.57s-4.56,3.32-6.84,5-4.45,2.93-6.24,5a28.84,28.84,0,0,0-4.56,6.37c-.54,1.14-.91,2.34-1.42,3.49a17.89,17.89,0,0,1-2.44,3.31c-1.74,2.3-3,4.95-4.45,7.39a36.29,36.29,0,0,1-5.36,6.26c-1.72,1.76-2.49,4-4.09,5.83-1.87,2.15-3.28,4.64-5.11,6.8a17.72,17.72,0,0,0-3.75,6.74,16.2,16.2,0,0,1-3.34,6.15,21.16,21.16,0,0,0-3.82,5.65c-.44,1.08-.52,2.28-1,3.33a10.37,10.37,0,0,1-1.91,2.33,63,63,0,0,0-5.24,6.74A14.78,14.78,0,0,0,80,288.59c-.25,2.84.29,5.17-1.28,7.72a13.11,13.11,0,0,1-2.39,2.76c-1.18,1.08-2.12,2.36-3.2,3.53a29.71,29.71,0,0,0-5,6.4c-1.25,2.41-2.13,5.07-3.24,7.55a42,42,0,0,0-3,8.06,21.14,21.14,0,0,1-3,6.77c-.69,1.08-1.54,2-2.26,3.06-.53.78-.69,2.27-1.32,2.87-2.32,2.23,1.22,5.77,3.54,3.53a6.71,6.71,0,0,0,1.56-2.79,14,14,0,0,1,1.95-2.86,29.56,29.56,0,0,0,3.76-7.06,36.68,36.68,0,0,0,1-3.71,26.21,26.21,0,0,1,1.64-4.05c1.07-2.5,2.21-4.9,3.18-7.45,1-2.73,2.86-4.7,4.8-6.79.94-1,1.74-2.12,2.72-3.08a24,24,0,0,0,2.85-3,13.28,13.28,0,0,0,2.73-7c.18-2.6-.25-4.88,1.06-7.26a43.61,43.61,0,0,1,4.84-6.57c1.48-1.78,3.07-3.15,3.72-5.44a14.46,14.46,0,0,1,3-6,22.57,22.57,0,0,0,3.87-5.58c1-2.22,1.19-4.93,2.78-6.82,1.85-2.22,3.36-4.68,5.21-6.9a35.4,35.4,0,0,0,2.27-2.76c.66-1,1-2.15,1.74-3.07,1.59-2,3.6-3.66,5.2-5.66a64.4,64.4,0,0,0,4.69-7.56c1.35-2.22,3.32-4,4.3-6.41a23.28,23.28,0,0,1,3.59-6.51,24.62,24.62,0,0,1,2.5-2.8c1.12-1,2.48-1.75,3.68-2.65,4.08-3.09,9.4-5.5,11.24-10.63.7-2,.64-4.44,2-6.09s3.55-2.4,5.08-3.84c1.86-1.75,2.75-4.21,4.31-6.21s3.57-4,5.08-6.28,2.64-4.74,4.08-7,3.35-4.43,4.92-6.71a38.84,38.84,0,0,1,5.43-6.7c2-1.85,4.19-3.37,6-5.38.87-1,1.67-2,2.59-2.89s2.16-1.8,3.12-2.84c1.94-2.11,3.71-4.41,6.07-6.09,1-.74,2.2-1.28,3.23-2s2.19-1.88,3.32-2.79a68.58,68.58,0,0,0,5.9-6c2.22-2.3,4.41-4.64,6.48-7.08a19.89,19.89,0,0,1,2.9-2.83c1-.84,1.87-1.94,2.92-2.75,2.21-1.7,5.29-2.2,7.8-3.32,2.78-1.23,5.35-2.86,8.06-4.22,2.45-1.23,4.83-2,6.87-4A18.57,18.57,0,0,0,249,99c1.13-2.55,2.34-3.51,5.17-3.3a55.17,55.17,0,0,1,8,1.28c5.71,1.32,10.19,6.21,14.77,9.6,1,.76,2.16,1.38,3.17,2.15a13.22,13.22,0,0,1,2.79,3.51c1.54,2.43,2.77,5,4.16,7.52a28.13,28.13,0,0,0,5.17,6.18c2.1,2.1,4.19,4.19,6.31,6.26a19.4,19.4,0,0,1,4,6.31,16.8,16.8,0,0,0,1.7,3.29,36.22,36.22,0,0,1,2.41,3.37,76.33,76.33,0,0,1,3.63,8.77c1.09,2.76,2.13,5.54,3.26,8.28,2.29,5.54,6,10.32,9.4,15.19q2.71,3.83,5.52,7.55a52.92,52.92,0,0,0,5.25,6.5c3.7,3.58,8.31,6.31,12.64,9.06,4.93,3.15,10.48,5.13,15,8.94a46.08,46.08,0,0,1,10.47,13.12c1.43,2.6,2.75,5.23,4.42,7.69a44.8,44.8,0,0,1,3.94,6.81c2.12,4.75,3.56,9.8,6.15,14.33a63.79,63.79,0,0,0,4.73,6.47c1.79,2.36,3.66,4.65,5.46,7a47.92,47.92,0,0,1,4.92,7.52,48.92,48.92,0,0,1,2.76,7.63,51.09,51.09,0,0,0,2.84,7.57,82.75,82.75,0,0,1,3.54,7.58,102.11,102.11,0,0,1,4.26,16.24c.61,3.17,1.2,6.34,1.73,9.52a38.34,38.34,0,0,0,1.77,7.94c2,5.09,4.25,10.34,7.55,14.7,3.42,4.53,6.66,9,9,14.22a79.16,79.16,0,0,1,3.15,7.84,21.92,21.92,0,0,0,2.82,6.57c1.9,2.54,6.24.06,4.32-2.53Z"
    transform="translate(-20.78 -9.24)" />
  <path class="cls-5"
    d="M91.56,173.87c26.07-9.28,45.13-20.12,73.45-8.44,6,3,12-2,15-8,2-4,2-9,6-11,13.1-7,46.48-14.63,57-1,4,4,11,5,16,8,10,7,19,15,31,16,19,0,38,0,57,4,5,7,7,15,5,23,0,4,2,6,6,3,2.65-8.37,46.36,2.87,53,8,18.7,16.88,11.87,21.89,41.89,17.13"
    transform="translate(-20.78 -9.24)" />
  <g class="cls-6">
    <g class="cls-6">
      <path class="cls-7"
        d="M129,165.55c-.74,0-1.48.1-2.23.17a5.08,5.08,0,0,1-.07,3c-1.06,1,.35,1,3,.76a81.06,81.06,0,0,1,10.59-.38c.16-1-.39-1.82-2.12-2.55a12.22,12.22,0,0,0-1.53-.53,20.08,20.08,0,0,0-2-.33,25.18,25.18,0,0,0-2.54-.23C131.12,165.49,130.09,165.51,129,165.55Z"
        transform="translate(-20.78 -9.24)" />
      <path class="cls-7" d="M89.14,157.73l-2.58,2.08a1.86,1.86,0,0,1,.39.1Z" transform="translate(-20.78 -9.24)" />
      <path class="cls-7"
        d="M102.41,168c5.62-1.53,8.79-3.57,12.89-5.14a16.63,16.63,0,0,1-6.33-1.14,26,26,0,0,0-7.46-1,33.14,33.14,0,0,1-6.2,3c1.31,0,1.31,0,2.79-.92l-4.44,2.7c1.14.89,8-1,12.44-2.85-2.51,1.49-6,3.62-8.77,5.32,1,.07,2,.13,3,.15,1.23-.31,2.49-.67,3.55-1Z"
        transform="translate(-20.78 -9.24)" />
      <path class="cls-7"
        d="M163.59,186.32c-.73-.25-1.41-.44-2.11-.75-2.51-.19-5.43-.47-8.54-1l-.79-.09.77.4c2.23,1.21,4.56,2.26,7,3.43l1.29.16.68.09c.23,0,.43,0,.65,0l2.62-.14c.24.25.49.5.78.75-.24.28-.64.55-2.11.7l.29.09c1.47.42,2.95.84,4.5,1.24-.5-.33-1-.66-1.41-1,1.1.13,2.22.3,3.29.45a18.33,18.33,0,0,0,2.76,0,9.09,9.09,0,0,0,2.24-.37,2.06,2.06,0,0,0,1.2-.83c-.67-.38-2.75-.43-5.09-.88-.58-.13-1.14-.23-1.8-.41l-2.07-.59C166.32,187.18,164.91,186.76,163.59,186.32Z"
        transform="translate(-20.78 -9.24)" />
      <path class="cls-7"
        d="M203.72,165.42a5.38,5.38,0,0,1-.77-3.49,13.42,13.42,0,0,1-4.22,1.25,15.14,15.14,0,0,0-2,.49,4.69,4.69,0,0,0-.84.37,3.94,3.94,0,0,0-.4.26l-.1.07-.05,0,0,0h0c5.54,10.75-7.56-14.64-6.21-12h0l-.1-.14.08.12,0,0h0l5.78,11.21h0v-.05l0-.06a1.71,1.71,0,0,0-.13-.23l-5.6-10.86h0l-.06-.09-.12-.14-.09-.09h0s0,0,0,0a1.8,1.8,0,0,0,.27.28l0,0h0l7.06,6.41h0l0,0,.07-.05.15-.11.31-.21-.91.87c-.63.64-1.29,1.33-1.93,2-1.3,1.43-2.56,2.94-3.93,4.41a30,30,0,0,1-9.79,7.19,15.84,15.84,0,0,1-5,1.32,8.58,8.58,0,0,1-3.78-.47,19.6,19.6,0,0,1-3.9-1.6c-1.27-.76-2.73-1.56-4.16-2.35-2.84-1.59-6-3.24-9-4.73l-3.7-1.63-.9-.4-.84-.31-1.67-.62c-2.21-.92-4.4-1.46-6.39-2.25-1.77.63-1.39,1.59-4.9,2a15.63,15.63,0,0,0,3.35.55c.59,0,1.2,0,1.83,0a18.71,18.71,0,0,0,2-.08c.51-.05,1-.1,1.55-.18-.53.08-1,.14-1.55.18l-6.19.45c.79.06,1.32.26,1.13.62a3.75,3.75,0,0,1-1.45.46c3.89,1.17,7.31,2.62,9.6,4.53a13.88,13.88,0,0,1,1.51,1.42c.21.23.41.47.59.71s.15.23.27.37l.34.43a5.6,5.6,0,0,1,1.38,3.34l2.85,1,.51.2c3.07,1.21,5.69,2.31,7.84,3.24a52.76,52.76,0,0,1,4.92,2,12.47,12.47,0,0,1,2.74,1.64,1.86,1.86,0,0,1,.77,1.41,19.5,19.5,0,0,0,5.94-.29,25.56,25.56,0,0,0,5.88-2,42.74,42.74,0,0,0,8.86-5.81,44.85,44.85,0,0,0,5.2-4.61,69,69,0,0,0,4.64-5.28c.78-1,1.56-2,2.34-3.07.22-.22-.1,0-.24,0l-.5.24-.26.12-.12.06-.07,0h0l-12.34-11.21h0l-.11-.09-.12-.12-.06-.08h0l.08.08.11.12.09.12v0h0c-1.74-3.36,15.13,29.32,8,15.49h1l1.42.18c.92-.89,2.08-1.84,3.13-2.78Z"
        transform="translate(-20.78 -9.24)" />
      <path class="cls-7"
        d="M452.31,220.83c-.78-1.5-2.64-2.89-5.23-4.09a13.86,13.86,0,0,1-1.73-.94l-1.67-.92-3.41-1.83c-.56-.33-1.12-.59-1.68-1l-.83-.5L437,211a11.11,11.11,0,0,1-2.81-3c-.78-1.19-1.41-2.44-2.12-3.55l-.55-.82a2.19,2.19,0,0,0-.22-.29L431,203l-.56-.68-.57-.67c-.19-.22-.37-.42-.66-.73l-1.68-1.75c-1.28-1.4-2.68-2.72-4.06-4l-2.11-1.94a18.33,18.33,0,0,0-2.34-1.66,61.86,61.86,0,0,0-10.41-4.9,164.69,164.69,0,0,0-16.37-5.31,138.83,138.83,0,0,0-17.46-3.61,65.75,65.75,0,0,0-10.92-.63c-1.12.05-2.29.12-3.66.3a31.5,31.5,0,0,0-4.78,1,25.49,25.49,0,0,0-7.25,3.36,22.26,22.26,0,0,0-2.39,1.85c-.41.37-.82.76-1.21,1.15s-.87.94-1.27,1.43a22.54,22.54,0,0,0-2.29,3.37,23.8,23.8,0,0,0-1.72,4l10.7-4.78a26.65,26.65,0,0,1,4.39,7.63c.08.24.13.55.18.76a2.21,2.21,0,0,1,.11.58l0,.3c0,.06,0,.13,0,.19a1.56,1.56,0,0,1,0,.39c0,.37-.13.23.18,0-.1.12-.1.1-.14.16a.49.49,0,0,0-.08.12s0,0,0,0a.47.47,0,0,0,0-.23s0,0,0,.1-.08.19,0,.05l.11-.12a2.25,2.25,0,0,1,.27-.26c.09-.05.26-.19.44-.3s.36-.18.66-.34a6.89,6.89,0,0,1,.89-.35,6.19,6.19,0,0,1,1.16-.32h0l7.57-1.81h0l0,0,.05,0,.11.05s.07.06,0,0l-.07-.19-.13-.4a12.69,12.69,0,0,1-.46-1.68c-.1-.57-.2-1.17-.31-1.8-.24-1.26-.48-2.66-.84-4.19-.67-3.12-1.27-7.77-2.63-11.8s-3.14-7.36-4.3-8.17c-.49-.56-1-1.09-1.45-1.58l-.7-.73a5.81,5.81,0,0,0-.86-.36c-1.15-.44-2.22-.81-3.24-1.12-5.49-.07-9.67.15-14.26.35l-7.37.32-8.94.27a8.18,8.18,0,0,1,1.6.92,14.92,14.92,0,0,1,1.23,1,5.24,5.24,0,0,0,3.17,1.46,114,114,0,0,0,17.78,4.19c1,.2,2,.39,3,.57l.39.07c.12,0,.28,0,.34.15l.48.59c.33.4.65.81,1,1.22a59.07,59.07,0,0,1,3.71,5.34,6.73,6.73,0,0,1,.82,3.06,7.82,7.82,0,0,1-.42,3.12c-.32.81-.72,1.23-1.21,1s-1-1.07-1.69-2.83a34.93,34.93,0,0,1,.26,11.68,5.09,5.09,0,0,0,.12,2.56,4.8,4.8,0,0,0,1.7,2.83,3,3,0,0,0,1.75.58,3.24,3.24,0,0,0,.84-.08,4.11,4.11,0,0,0,.75-.23,9.92,9.92,0,0,0,2.41-1.46l.21-.16.05-.21a2.29,2.29,0,0,1,.91-1.19,7.53,7.53,0,0,1,3.15-1.12,15.8,15.8,0,0,1,2.81-.17,13,13,0,0,1,3.76.62c1.74.64,2.1,1.5,2,2.43-.21,1.87-2,4.09.93,6.11a10.71,10.71,0,0,0,4,2.58,195.3,195.3,0,0,1,21.08.36l5,.44a32.81,32.81,0,0,1,4.71.78,7,7,0,0,1,2.22.88l2.11,1.21c.72.4,1.4.87,2.11,1.33s1.5,1,2.25,1.56c2.76,1.92,5.18,7.67,8.39,9.54a19.53,19.53,0,0,0,2.2,1.39,9.69,9.69,0,0,0,1.23.53,8,8,0,0,0,1.27.46,14.54,14.54,0,0,0,2.7.47,14.15,14.15,0,0,0,2.76,0,33.22,33.22,0,0,0,5.29-.72c1.67-.44,3.25-.81,4.65-1.32s2.67-1,3.75-1.43a27.61,27.61,0,0,0,2.76-1.42C452.13,222.14,452.79,221.37,452.31,220.83Z"
        transform="translate(-20.78 -9.24)" />
      <path class="cls-7"
        d="M289.41,150.35c.47-.09.95-.24,1.4-.34s.88-.22,1.5-.41l.86-.22.45-.1.83-.1c1.11-.12,2.22-.24,3.37-.33l-2.56-.46a12,12,0,0,1-2.1-.45l-1.19-.45c-.34-.18-.56-.37-.83-.54a11,11,0,0,1-1.36-1.26,5.1,5.1,0,0,1-.56-.67l-.26-.33a3.89,3.89,0,0,0-.29-.39,15.4,15.4,0,0,1-3.52.27c.63.52,1.22,1.07,1.7,1.53.25.27.47.49.67.72a6.66,6.66,0,0,1,.44.63A21.16,21.16,0,0,1,289.41,150.35Z"
        transform="translate(-20.78 -9.24)" />
      <path class="cls-7"
        d="M361.85,201.75a4.62,4.62,0,0,1,.42.71,5.51,5.51,0,0,0-.38-.65,6.64,6.64,0,0,0-.89-1.18,2.06,2.06,0,0,0-.55-.42l9.54,4.33-6.18,2.63c-.77.34-1.56.68-2.65,1.06-.46.17-1.19.39-1.8.55-.29.08-.75.17-1.14.24l-.6.09c-.19,0-.4.06-.67.08-.5,0-1,.05-1.5,0a13.66,13.66,0,0,1-1.77-.19,10.84,10.84,0,0,1-1.89-.53,9.25,9.25,0,0,1-1.82-.94,8.21,8.21,0,0,1-1.53-1.24,7.3,7.3,0,0,1-1.11-1.36c-.16-.23-.3-.47-.43-.7s-.2-.42-.29-.63a7.31,7.31,0,0,1-.42-1.21c-.2-.37-.41-.79-.56-1.15s-.28-.69-.4-1l-.4-1.3a3,3,0,0,1-.21-1.35c.06-.86.05-1.7,0-2.51,0-1.63-.11-3.17-.18-4.68a81.66,81.66,0,0,1-.05-9.28c-.44.13-1-.68-1.56-1.61-.4-1.24-1.82-1.15-2.59-1.21.6-.38.06-1.21.26-1.82a.68.68,0,0,1,.29-.35,3,3,0,0,1,1.7-.32,10.21,10.21,0,0,1-1.38-.09,36.32,36.32,0,0,1-3.82-.83,6.56,6.56,0,0,0-3.4-.07c-2.19-.8-1-1.21.5-1.61s3.36-.77,1.87-1.68a88.84,88.84,0,0,1-13.66,0c-1.92-.16-3.86-.44-5.58-.76a38.94,38.94,0,0,1-4.65-1.16c-5.42-1.77-7.62-4.43-4-6.4,2.74-1.81,8-2.6,11.44-5a5.16,5.16,0,0,1,1.57-.71,12.48,12.48,0,0,1,2.64-.29,43.43,43.43,0,0,1,7,.47,125.62,125.62,0,0,1,15,3.27,9.68,9.68,0,0,0-3-1.65l-4.3-1.67c-2.64-1-4.14-1.84.28-2.12,5.69.17,12,.49,17.64.58l2.66,1.41a9.56,9.56,0,0,1,2.3,1.38l-.44-.63a5.75,5.75,0,0,0-.5-.49l-1-.93L357.63,155c-5.47-.91-11-1.76-16.55-2.45s-11-1-16.15-1.21l-1.9-.08-1.57,0-2.49,0-4.57-.1a64.31,64.31,0,0,1-7.19-.5l-9.39-1.69c-1.15.09-2.26.21-3.37.33l-.83.1-.45.1-.86.22c-.62.19-1,.26-1.5.41s-.93.25-1.4.34a21.16,21.16,0,0,0-1.45-2.9,6.66,6.66,0,0,0-.44-.63c-.2-.23-.42-.45-.67-.72-.48-.46-1.07-1-1.7-1.53a17.78,17.78,0,0,0-4.29.13c-2.56,0-.48,2.46,2,4.71,1.26,1.15,2.65,2.2,3.53,3,.47.45,1,.78,1.37,1.21a5.46,5.46,0,0,1,1,1.14c-1.39-.13-2.66-.3-3.83-.46-.57-.09-1.19-.19-1.83-.31s-1.23-.21-1.83-.35a18.54,18.54,0,0,0-5.88-.39c-3,.44-3.8,2.85-2.31,6.36a25.72,25.72,0,0,0,4.65,6.54,27.08,27.08,0,0,0,9.07,6,16.92,16.92,0,0,0,1.77.45,10.21,10.21,0,0,0,1.93.29l2,.11,1,0h1a45.06,45.06,0,0,0,8-.61c-1.71.3-6.85,1.25-5.61,1.7a113.46,113.46,0,0,1,11.94,3.06,45,45,0,0,0,6.07,1.19c1.13.15,2.34.25,3.64.32l1,0,1,0,1.73,0c-.44.75.38,1.23-2.11,1.72,5-.94,1.45,3,6.17,2.1.68,1.14.36,2.72.48,4.05s.55,2.36,2.82,2.54c.28,0,.55,0,.79,0a9.65,9.65,0,0,1,1.26.19l.27.06c.08,0,.17,0,.2.14s.17.32.25.49a9,9,0,0,1,3.67,3.55,9.21,9.21,0,0,1,1,6,1.74,1.74,0,0,0,0,.68l.1.49.15.72.08.36,0,.18.08.29a19.23,19.23,0,0,0,2.17,5.08,16.46,16.46,0,0,0,1,1.47c.43.56.89,1.1,1.37,1.62.25.26.47.49.76.75s.61.54.93.79a17.78,17.78,0,0,0,2,1.39,16.89,16.89,0,0,0,4.64,1.86c.39.1.79.18,1.19.25s.8.12,1.12.15c.69,0,1.39.08,2.08.07.33,0,.72,0,1-.05l.83-.1c.56-.07,1.11-.17,1.65-.28.29-.06.49-.12.7-.18l.63-.19c.41-.13.83-.27,1.23-.42.74-.29,1.29-.56,1.93-.87l.45-.24.35-.2.71-.43.69-.45.57-.41,1.08-.82,5.62-4.31-11.88-6.52a3.45,3.45,0,0,1,1.26,1.31,19.32,19.32,0,0,1,2.2,5.13c.3,1.09.68,2.43.91,3.72l0,.14s0,0,0,0h0v0s.06,0,.08-.07a2.86,2.86,0,0,1,.74-.31l-.8,0c-.11,0-.09,0-.13,0-.16-1-.54-2.25-.74-3.06-.12-.44-.26-.87-.4-1.27s-.22-.71-.35-1l-.36-.88c-.09-.25-.19-.48-.29-.69l-.48-.94C362,202,361.91,201.85,361.85,201.75Z"
        transform="translate(-20.78 -9.24)" />
      <path class="cls-7"
        d="M372.28,206.33c-2.91-2-1.14-4.24-.93-6.11.08-.93-.28-1.79-2-2.43a13,13,0,0,0-3.76-.62,15.8,15.8,0,0,0-2.81.17,7.53,7.53,0,0,0-3.15,1.12,2.29,2.29,0,0,0-.91,1.19l-.05.21-.21.16a9.92,9.92,0,0,1-2.41,1.46,4.11,4.11,0,0,1-.75.23,3.24,3.24,0,0,1-.84.08,3,3,0,0,1-1.75-.58,4.8,4.8,0,0,1-1.7-2.83,5.09,5.09,0,0,1-.12-2.56,34.93,34.93,0,0,0-.26-11.68c.72,1.76,1.2,2.62,1.69,2.83s.89-.22,1.21-1a7.82,7.82,0,0,0,.42-3.12,6.73,6.73,0,0,0-.82-3.06,59.07,59.07,0,0,0-3.71-5.34c-.32-.41-.64-.82-1-1.22l-.48-.59c-.06-.14-.22-.12-.34-.15l-.39-.07c-1-.18-2-.37-3-.57a114,114,0,0,1-17.78-4.19,5.24,5.24,0,0,1-3.17-1.46,14.92,14.92,0,0,0-1.23-1,8.18,8.18,0,0,0-1.6-.92l8.94-.27,7.37-.32c4.59-.2,8.77-.42,14.26-.35,1,.31,2.09.68,3.24,1.12a5.81,5.81,0,0,1,.86.36l.7.73c.48.49,1,1,1.45,1.58,1.16.81,3,4.14,4.3,8.17s2,8.68,2.63,11.8c.36,1.53.6,2.93.84,4.19.11.63.21,1.23.31,1.8a12.69,12.69,0,0,0,.46,1.68l.13.4.07.19c0,.09,0,0,0,0l-.11-.05-.05,0,0,0h0L358.22,197h0a6.19,6.19,0,0,0-1.16.32,6.89,6.89,0,0,0-.89.35c-.3.16-.47.22-.66.34s-.35.25-.44.3a2.25,2.25,0,0,0-.27.26l-.11.12c-.09.14,0,.08,0-.05s0-.11,0-.1a.47.47,0,0,1,0,.23s0,0,0,0a.49.49,0,0,1,.08-.12c0-.06,0,0,.14-.16a1.68,1.68,0,0,1,.34-.27,2.79,2.79,0,0,1,.53-.34c.16-.06.45-.24.68-.33s.47-.15.79-.28a5.85,5.85,0,0,1,.91-.25l.11,0h0l13.32-3.17h0l.13.06.25.1.25.11.13.05s0-.09,0-.13v-.63c-.06-1.75.13-3.21.08-4.8a44.76,44.76,0,0,0-1.07-9.35,50.46,50.46,0,0,0-7.65-17.44c-.65-1-1.33-2-2-3a9.56,9.56,0,0,0-2.3-1.38l-2.66-1.41c-5.65-.09-12-.41-17.64-.58-4.42.28-2.92,1.12-.28,2.12l4.3,1.67a9.68,9.68,0,0,1,3,1.65,125.62,125.62,0,0,0-15-3.27,43.43,43.43,0,0,0-7-.47,12.48,12.48,0,0,0-2.64.29,5.16,5.16,0,0,0-1.57.71c-3.4,2.44-8.7,3.23-11.44,5-3.6,2-1.4,4.63,4,6.4a38.94,38.94,0,0,0,4.65,1.16c1.72.32,3.66.6,5.58.76a88.84,88.84,0,0,0,13.66,0c1.49.91-.37,1.26-1.87,1.68s-2.69.81-.5,1.61a6.56,6.56,0,0,1,3.4.07,36.32,36.32,0,0,0,3.82.83,10.21,10.21,0,0,0,1.38.09,3,3,0,0,0-1.7.32.68.68,0,0,0-.29.35c-.2.61.34,1.44-.26,1.82.77.06,2.19,0,2.59,1.21.6.93,1.12,1.74,1.56,1.61a81.66,81.66,0,0,0,.05,9.28c.07,1.51.16,3,.18,4.68,0,.81,0,1.65,0,2.51a3,3,0,0,0,.21,1.35l.4,1.3c.12.35.26.7.4,1s.36.78.56,1.15a7.31,7.31,0,0,0,.42,1.21c.09.21.18.42.29.63s.27.47.43.7a7.3,7.3,0,0,0,1.11,1.36,8.21,8.21,0,0,0,1.53,1.24,9.25,9.25,0,0,0,1.82.94,10.84,10.84,0,0,0,1.89.53,13.66,13.66,0,0,0,1.77.19c.5,0,1,0,1.5,0,.27,0,.48-.05.67-.08l.6-.09c.39-.07.85-.16,1.14-.24.61-.16,1.34-.38,1.8-.55,1.09-.38,1.88-.72,2.65-1.06l6.18-2.63-9.54-4.33a2.06,2.06,0,0,1,.55.42,6.64,6.64,0,0,1,.89,1.18,5.51,5.51,0,0,1,.38.65,4.62,4.62,0,0,0-.42-.71c.06.1.17.26.3.49l.48.94c.1.21.2.44.29.69l.36.88c.13.33.22.65.35,1s.28.83.4,1.27c.2.81.58,2.11.74,3.06,0,0,0,0,.13,0l.8,0a27.63,27.63,0,0,1,4.78-.8c1.83-.18,3.78-.3,5.75-.37A10.71,10.71,0,0,1,372.28,206.33Z"
        transform="translate(-20.78 -9.24)" />
      <path class="cls-7"
        d="M329.72,189.1c-2.27-.18-2.69-1.21-2.82-2.54s.2-2.91-.48-4.05c-4.72.86-1.13-3-6.17-2.1,2.49-.49,1.67-1,2.11-1.72l-1.73,0-1,0-1,0c-1.3-.07-2.51-.17-3.64-.32a45,45,0,0,1-6.07-1.19A113.46,113.46,0,0,0,297,174.09c-1.24-.45,3.9-1.4,5.61-1.7a45.06,45.06,0,0,1-8,.61h-1l-1,0-2-.11a10.21,10.21,0,0,1-1.93-.29,16.92,16.92,0,0,1-1.77-.45,27.08,27.08,0,0,1-9.07-6,25.72,25.72,0,0,1-4.65-6.54c-1.49-3.51-.67-5.92,2.31-6.36a18.54,18.54,0,0,1,5.88.39c.6.14,1.19.2,1.83.35s1.26.22,1.83.31c1.17.16,2.44.33,3.83.46a5.46,5.46,0,0,0-1-1.14c-.4-.43-.9-.76-1.37-1.21-.88-.75-2.27-1.8-3.53-3-2.5-2.25-4.58-4.71-2-4.71a17.78,17.78,0,0,1,4.29-.13c-1.34-1.13-3.06-2.45-5.17-4-1.06-.78-2.21-1.6-3.47-2.48l-2-1.38c-1-.7-2.1-1.42-3.17-2.1a42.48,42.48,0,0,0-7-3.35c-1.15-.45-2.61-1-3.29-1.17l-2.15-.66a9.92,9.92,0,0,0-2.08-.52h0s0,0,0,0l-.13.24-.25.48c-.35.64-.72,1.27-1.1,1.88s-.65,1.08-.94,1.53-.57.87-.88,1.3l-.24.32-.15.23-.33.46c-.22.3-.46.59-.71.88a10.42,10.42,0,0,1-1.08,1.19l8.91-5a37.44,37.44,0,0,0-12.05-9.59c-1.3.62-.88,1.64,2.47,4.36.73.67,1.41,1.33,2,2s1.2,1.38,1.71,2a27.66,27.66,0,0,1,2.49,3.82L251,137.43a7.8,7.8,0,0,0,.8-.85l.17-.21.24-.28.47-.58c.14-.19.28-.37.4-.56l.18-.27.27-.36.25-.36.12-.16,0,0-.1.15a2.1,2.1,0,0,0-.22.71,3.25,3.25,0,0,0-.11.77c-.06.53-.12,1.06-.15,1.6s-.13,1.08-.14,1.63a7.31,7.31,0,0,0,.56,3.58c.6,1.36,1.79,2.82,4.43,5,.57.49,1.43,1.11,2.36,1.86l.72.57.7.66,1.41,1.32a46.23,46.23,0,0,1,3.59,3.65c1.45,2.89.4,4.05-.67,5.22s-2.19,2.32-.56,5.27c-.42.17,1.64,1.5,4,2.89s5,2.78,5.16,3.51c1.26,1.77,1.21,3.15,1.81,4.59a5.35,5.35,0,0,0,1.79,2.26,14.5,14.5,0,0,0,4.9,2.32l2.41.68,2.35.53a19,19,0,0,0,2.19.35l2.07.28,1,.14.78.14,1.43.29c.93.19,1.82.4,2.67.61a50.3,50.3,0,0,1,8.53,2.89c4.75,2.12,8,4.55,11.6,7a4.83,4.83,0,0,0,1.16-.24c.2-.1.33-.19.5-.29l1-.58c.72-.38,1.52-.77,2.4-1.14a31.38,31.38,0,0,1,6.24-1.92c.47-.1.95-.19,1.45-.27a5.1,5.1,0,0,1,.75-.09l.54.27c-.08-.17-.16-.33-.25-.49s-.12-.12-.2-.14l-.27-.06a9.65,9.65,0,0,0-1.26-.19C330.27,189.11,330,189.1,329.72,189.1Z"
        transform="translate(-20.78 -9.24)" />
      <path class="cls-7"
        d="M156.36,128.15l-1,0-4.26-.37c-3-.33-6-.35-8.86-.42,2,.25,3.88.52,5.68.84s3.49.81,5.11,1.23l1.19.32.59.16.14,0,0,0,.07.06.5.45,1,.94a25.16,25.16,0,0,0,2,4.67,20.17,20.17,0,0,0,3.74,5.2c.35.41,1.17.3,2-.35a7.11,7.11,0,0,0,2.12-3.06,5.19,5.19,0,0,1,1.08-1.78l.64-.78.74-.85c.21-.25.55-.59.88-.91s.65-.63,1-.93a23.2,23.2,0,0,1,2.12-1.7q.56-.41,1.11-.78c.37-.24.7-.42,1-.63L176,129l.53-.27.25-.13.1,0,.74-.3c.49-.19,1-.37,1.48-.55,4.05-1.42,7-1.72,8.36-1.16-.29.93-1.79,2.12-4.14,3.67-1.14.76-2.66,1.71-4.06,2.65l-.14.09-.23.14-.7.43c-.48.31-.93.6-1.41.95A22.06,22.06,0,0,0,174,137a19.08,19.08,0,0,0-2.09,2.57,4.42,4.42,0,0,0-.27.63,4.44,4.44,0,0,1,.52-.4l0,0,.11-.12.25-.27.5-.53.51-.51.64-.58c.43-.37.87-.74,1.31-1.08s.94-.65,1.42-.95a12.26,12.26,0,0,1,1.38-.77l1.34-.63c.9-.26,1.57-.43,2.4-.62s1.55-.35,2.27-.46a38,38,0,0,1,7.55-.52,39.59,39.59,0,0,1,10.8,2c3.07,1,5.85,2.09,9,3.16s6.66,2.09,11,3.32a22.75,22.75,0,0,1,9.7,5.1,8.12,8.12,0,0,1,2.09,3.29,3.83,3.83,0,0,1-.25,2.71l.94,1.07a53,53,0,0,0,5.68,7.29,44.23,44.23,0,0,1,3.81,4.74c1.73,2.71,2.16,4.95,1.36,6.72a5.12,5.12,0,0,0-.2,2.19c0,.36.09.72.14,1.09l.07.56,0,.28a.68.68,0,0,0,.1.32A98.09,98.09,0,0,0,259,189.18c1.41.59,2.78,1.15,4.32,1.71s3,1.06,4.81,1.66A67,67,0,0,0,278.82,195a51.34,51.34,0,0,1-6.55-3.46c-1-.62-1.89-1.24-2.73-1.84s-1.58-1.24-2.19-1.79a21.78,21.78,0,0,1-2.85-3.08,6.85,6.85,0,0,1-1.16-2.39c-.24-4.11-1.64-8.39-4.41-13.44q-1-1.87-2.36-3.9l-.68-1-.36-.51c-.12-.18-.18-.3-.27-.45-.33-.56-.69-1.17-1.11-1.76a15.63,15.63,0,0,0-1.54-1.65c-.29-.27-.6-.52-.92-.79a11.41,11.41,0,0,0-1.11-.83c-.87-.6-1.9-1.23-3-1.94s-2.37-1.47-3.72-2.44a8,8,0,0,1-1.77-1.78,4.22,4.22,0,0,1-.73-1.61,3,3,0,0,1,.61-2.4c.95-1.29,2.26-2.36,2.26-3.64l.14.16a2.41,2.41,0,0,0-.23-1.05,20.36,20.36,0,0,0-3.32-5.64,31.19,31.19,0,0,0-2.09-2.33c-.71-.69-1.46-1.43-2.19-2a65.51,65.51,0,0,0-8.84-6.24A103.29,103.29,0,0,0,210,118.67c-2.59-1.25-7.95-2.4-14.57-2.69a102.23,102.23,0,0,0-16.48,5.39c-.71.29-1.48.64-2.24,1s-1.42.67-2.13,1l-.26.13-.67.35c-.56.3-1.11.61-1.65.94a30.47,30.47,0,0,0-3.37,2.35,33.05,33.05,0,0,0-3.08,2.8c-.53.53-.84.91-1.21,1.34s-.71.84-1,1.28-.19.23-.21.25l0,0-.07.06-.13.14-.23.28a5.34,5.34,0,0,1-.43.5c-.32,1.46-1.39,1.79-2.22,1.31a5.63,5.63,0,0,1-2-2.81,21.07,21.07,0,0,1-1-3.07c-.18-.79-.17-1.22-.19-1.08Z"
        transform="translate(-20.78 -9.24)" />
      <path class="cls-7"
        d="M283.36,181.41a14.5,14.5,0,0,1-4.9-2.32,5.35,5.35,0,0,1-1.79-2.26c-.6-1.44-.55-2.82-1.81-4.59-.16-.73-2.83-2.11-5.16-3.51s-4.41-2.72-4-2.89c-1.63-3-.5-4.1.56-5.27s2.12-2.33.67-5.22a46.23,46.23,0,0,0-3.59-3.65l-1.41-1.32-.7-.66-.72-.57c-.93-.75-1.79-1.37-2.36-1.86-2.64-2.19-3.83-3.65-4.43-5a7.31,7.31,0,0,1-.56-3.58c0-.55.1-1.09.14-1.63s.09-1.07.15-1.6a3.25,3.25,0,0,1,.11-.77,2.1,2.1,0,0,1,.22-.71l.1-.15,0,0-.12.16-.25.36-.27.36-.18.27c-.12.19-.26.37-.4.56l-.47.58-.24.28-.17.21a7.8,7.8,0,0,1-.8.85l5.56-2.46a27.66,27.66,0,0,0-2.49-3.82c-.51-.65-1.08-1.34-1.71-2s-1.3-1.29-2-2c-3.35-2.72-3.77-3.74-2.47-4.36l-.22-.1c1.21,0,1.19-.47.35-1.26a13.26,13.26,0,0,0-1.82-1.34,25.49,25.49,0,0,0-2.58-1.37,36.58,36.58,0,0,0-5.77-2.07l-1.3-.34-1.13-.24-1.74-.35a92.86,92.86,0,0,0-10.42-1.12c-2.88-.18-5.3-.23-7.62-.29a119.89,119.89,0,0,0-14.13.44c-2.06.33-4.1.73-6.11,1.22,6.62.29,12,1.44,14.57,2.69a103.29,103.29,0,0,1,17.72,8.44,65.51,65.51,0,0,1,8.84,6.24c.73.6,1.48,1.34,2.19,2a31.19,31.19,0,0,1,2.09,2.33,20.36,20.36,0,0,1,3.32,5.64,2.41,2.41,0,0,1,.23,1.05l-.14-.16c0,1.28-1.31,2.35-2.26,3.64a3,3,0,0,0-.61,2.4,4.22,4.22,0,0,0,.73,1.61,8,8,0,0,0,1.77,1.78c1.35,1,2.59,1.74,3.72,2.44s2.16,1.34,3,1.94a11.41,11.41,0,0,1,1.11.83c.32.27.63.52.92.79a15.63,15.63,0,0,1,1.54,1.65c.42.59.78,1.2,1.11,1.76.09.15.15.27.27.45l.36.51.68,1q1.32,2,2.36,3.9c2.77,5,4.17,9.33,4.41,13.44a6.85,6.85,0,0,0,1.16,2.39,21.78,21.78,0,0,0,2.85,3.08c.61.55,1.36,1.16,2.19,1.79s1.76,1.22,2.73,1.84a51.34,51.34,0,0,0,6.55,3.46c1.5.25,3,.33,4.52.47s3,.11,4.49.13l4-.31,1-.09c.3,0,.73-.06.87-.09l1.21-.17a13.86,13.86,0,0,1,5.37.35,25,25,0,0,1,2.8.83c5.73-.43,10.67-1.09,15.3-1.81-3.61-2.4-6.85-4.83-11.6-7a50.3,50.3,0,0,0-8.53-2.89c-.85-.21-1.74-.42-2.67-.61l-1.43-.29-.78-.14-1-.14-2.07-.28a19,19,0,0,1-2.19-.35l-2.35-.53Z"
        transform="translate(-20.78 -9.24)" />
      <path class="cls-7"
        d="M123,128.74l-2.42.69-2.37.78c-1.57.52-3.24,1-4.53,1.43a39.71,39.71,0,0,1-4.46,1.34,10.89,10.89,0,0,1-2.32.34,10.32,10.32,0,0,0-3.64.34l1.58-.06-1.18.32-1.11.32c.47.07.92.15,1.35.23s.88.18,1.29.28a11.81,11.81,0,0,1,2.14.75,3.4,3.4,0,0,1,2.12,2.36c1.06-.34,2.2-.63,3.26-.88s2-.45,3-.6a13.33,13.33,0,0,1,4.47-.09c.7.17,1.38.34,2,.52s1.36.4,2,.61c1.32.42,2.59.87,3.84,1.32s2.58,1,3.87,1.5,2.61,1,4,1.58,2.86,1.15,4.41,1.71,3.19,1.31,4.94,1.95c.87.31,1.77.7,2.7,1.09l2.88,1.18.76.29.38.15.22.15.94.58c.65.4,1.34.79,2.08,1.19s1.24.82,1.94,1.24,1.45.81,2.22,1.34,1.6,1,2.49,1.53q.66.38,1.35.81a5,5,0,0,0,.73.36,4.07,4.07,0,0,0,.76.28c1.08.28,1.94.42,2.61.62a3.86,3.86,0,0,1,1.6.92,11.1,11.1,0,0,1,1.89,3.38,5.46,5.46,0,0,0,2.9,3.19,3.88,3.88,0,0,0,2.87-.17,10.71,10.71,0,0,0,3.88-2.75,15.73,15.73,0,0,0,2.68-4.05,40.66,40.66,0,0,1,2.66-5c.25-.38.6-.79.84-1.1l.21-.29a1.36,1.36,0,0,1,.25-.11,1.56,1.56,0,0,1,.47-.09h.32l.12,0,.24,0a3.71,3.71,0,0,1,2.78.24c1.07,1.27.39,3.45.69,5a2.13,2.13,0,0,0,1.32,1.79c.82.37,2.07.43,4.3.11a56,56,0,0,1,16.26-.42c4.86.64,8.87,2.11,10.95,4a3.87,3.87,0,0,1,1.57,2.79,1,1,0,0,1,0,.34l0,.16,0,.07s0,.1,0-.06c.14-.41.35-.88.46-1.23s.24-.71.38-1,.28-.68.43-1l.24-.49.17-.41a16.57,16.57,0,0,1,.76-1.52l.21-.35.14-.28c.1-.19.2-.36.31-.54s.47-.7.63-.95a9.83,9.83,0,0,1,.89-1.17,7.27,7.27,0,0,1,.51-.56l.12-.1,0,0,.07-.07a3.11,3.11,0,0,1,.25-.2l-12.57,15.15a45.92,45.92,0,0,0,10.78,8.19,52.13,52.13,0,0,0,7.82,3.5c.55.2,1,.34,1.41.48l.65.2.54.16.55.16.43.11.42.11c.08,0,0,0,.06,0a2.76,2.76,0,0,1,.32-.46l.24-.24c.06,0,.07-.11.18-.1s.09,0,.17.07l.25.12.48.23,4.37,2.16c3.17,1.56,6.83,3.38,11.18,5.21a98.09,98.09,0,0,1-12.85-12.69.68.68,0,0,1-.1-.32l0-.28-.07-.56c0-.37-.1-.73-.14-1.09a5.12,5.12,0,0,1,.2-2.19c.8-1.77.37-4-1.36-6.72a44.23,44.23,0,0,0-3.81-4.74,53,53,0,0,1-5.68-7.29l-.94-1.07a3.83,3.83,0,0,0,.25-2.71,8.12,8.12,0,0,0-2.09-3.29,22.75,22.75,0,0,0-9.7-5.1c-4.33-1.23-7.86-2.22-11-3.32s-5.92-2.19-9-3.16a39.59,39.59,0,0,0-10.8-2,38,38,0,0,0-7.55.52c-.72.11-1.48.27-2.27.46s-1.5.36-2.4.62l-1.34.63a12.26,12.26,0,0,0-1.38.77c-.48.3-1,.62-1.42.95s-.88.71-1.31,1.08l-.64.58-.51.51-.5.53-.25.27-.11.12,0,0a4.44,4.44,0,0,0-.52.4,4.42,4.42,0,0,1,.27-.63A19.08,19.08,0,0,1,174,137a22.06,22.06,0,0,1,2.81-2.48c.48-.35.93-.64,1.41-.95l.7-.43.23-.14.14-.09c1.4-.94,2.92-1.89,4.06-2.65,2.35-1.55,3.85-2.74,4.14-3.67-1.4-.56-4.31-.26-8.36,1.16-.52.18-1,.36-1.48.55l-.74.3-.1,0-.25.13L176,129l-1.05.57c-.35.21-.68.39-1,.63s-.74.51-1.11.78a23.2,23.2,0,0,0-2.12,1.7c-.33.3-.66.61-1,.93s-.67.66-.88.91l-.74.85-.64.78a5.19,5.19,0,0,0-1.08,1.78,7.11,7.11,0,0,1-2.12,3.06c-.83.65-1.65.76-2,.35a20.17,20.17,0,0,1-3.74-5.2,25.16,25.16,0,0,1-2-4.67l-1-.94-.5-.45L155,130l0,0-.14,0-.59-.16-1.19-.32c-1.62-.42-3.32-.84-5.11-1.23s-3.7-.59-5.68-.84A125.88,125.88,0,0,0,123,128.74Z"
        transform="translate(-20.78 -9.24)" />
      <path class="cls-7"
        d="M197.39,157.29c-2.23.32-3.48.26-4.3-.11a2.13,2.13,0,0,1-1.32-1.79c-.3-1.59.38-3.77-.69-5a3.71,3.71,0,0,0-2.78-.24l-.24,0-.12,0h-.32a1.56,1.56,0,0,0-.47.09,1.36,1.36,0,0,0-.25.11l-.21.29c-.24.31-.59.72-.84,1.1a40.66,40.66,0,0,0-2.66,5,15.73,15.73,0,0,1-2.68,4.05,10.71,10.71,0,0,1-3.88,2.75,3.88,3.88,0,0,1-2.87.17,5.46,5.46,0,0,1-2.9-3.19,11.1,11.1,0,0,0-1.89-3.38,3.86,3.86,0,0,0-1.6-.92c-.67-.2-1.53-.34-2.61-.62a4.07,4.07,0,0,1-.76-.28,5,5,0,0,1-.73-.36q-.69-.43-1.35-.81c-.89-.52-1.71-1-2.49-1.53s-1.53-.9-2.22-1.34-1.33-.86-1.94-1.24-1.43-.79-2.08-1.19l-.94-.58-.22-.15-.38-.15-.76-.29L148,146.57c-.93-.39-1.83-.78-2.7-1.09-1.75-.64-3.4-1.33-4.94-1.95s-3-1.13-4.41-1.71-2.72-1.06-4-1.58-2.6-1-3.87-1.5-2.52-.9-3.84-1.32c-.66-.21-1.34-.42-2-.61s-1.34-.35-2-.52a13.33,13.33,0,0,0-4.47.09c-.91.15-1.9.35-3,.6s-2.2.54-3.26.88a4.21,4.21,0,0,1-.72,2.83c-.26.91,2.68.81,6.75.65,2-.11,4.33-.15,6.49-.19,1.07,0,2.18,0,3.2.07s2,.11,2.78.2c2,1.16,1.1,2.62-1.13,4.21-1.12.8-2.58,1.61-4.08,2.55S119.55,150,118,151c-.9.71-1.84,1.41-2.74,2.15a3.39,3.39,0,0,0-.43-.11c-.78.55-1.53,1.09-2.21,1.62,1.22,0,2.4-.05,3.56,0s2.34.08,3.43.15a11.9,11.9,0,0,1,2.54-.43l-1.26.54a22.19,22.19,0,0,1,7.65,1.94,11.3,11.3,0,0,0,2.68,1.26,31.53,31.53,0,0,0,3.45,1c.52-.08,1.05-.17,1.6-.21s1.12,0,1.7,0a7.18,7.18,0,0,0-2.35.47c1.39.33,2.88.74,4.4,1.06s3.1.87,4.67,1.27,3.12,1.09,4.64,1.63,3.27,1.45,4.9,2.21c2.06,1.07,4.1,2.22,6.06,3.39s3.65,2.28,5.25,3.41a14.33,14.33,0,0,0,1.5,1.05,9.52,9.52,0,0,0,1.94,1,11.9,11.9,0,0,0,5.34.72c4-.31,8.15-2.36,11.46-4.75a51.06,51.06,0,0,0,4.47-3.63c1.28-1.17,2.43-2.23,3.5-3,2.12-1.58,3.89-2.08,4.44.32.25-.66.54-1.33.86-2l.52-1,.14-.27c0-.07,0-.05-.06,0l-.14,0-.58.16-.29.08h-.06l-9.49-8.61v0l0,0a1.1,1.1,0,0,1-.16-.15c-.15-.18,0-.06-.08-.09s.14.14.2.22l.06.09,0,0h0l6,11.61h0l.07,0,.27-.07c.76-.24,1.28-.32,1.95-.54a6.49,6.49,0,0,0,1.76-.84,5.79,5.79,0,0,0,1,3.42c2.63.14,6,.11,6.71,1-.17,1.23-2.37,1.15-4.22,1.65l.8.64.71.05a19.63,19.63,0,0,0,3.14-1.66c1-1.19,2.18-2.36,3.14-3.37-.24,1.12-1.52,2.31-3.14,3.37a11.89,11.89,0,0,0-1.28,1.81c2.74.21,5.68.44,8.63.72.54-.2,1.09-.45,1.57-.66-.41.18-.89.44-1.38.68l1.2.12c1-.47,2.55-1.15,4.16-1.8s3.34-1.27,4.35-1.76a4.87,4.87,0,0,1,.19,2l0,.1v0s0,0,0,0l.06-.25.26-1,.3-1c.1-.34.16-.61.25-.91.17-.6.36-1.2.58-1.81l.34-.89.28-.8c.2-.53.42-1.06.67-1.59.15-.29.23-.51.33-.73s.2-.45.31-.67c.21-.44.51-.94.71-1.31s.4-.72.63-1.08l.37-.51c.08-.14.16-.27.25-.4a9.2,9.2,0,0,1,.63-.77,4.57,4.57,0,0,1,.42-.49l.24-.23.11-.11-.07.07,0,0-.12.1a7.27,7.27,0,0,0-.51.56,9.83,9.83,0,0,0-.89,1.17c-.16.25-.44.62-.63.95s-.21.35-.31.54l-.14.28-.21.35a16.57,16.57,0,0,0-.76,1.52l-.17.41-.24.49c-.15.33-.29.66-.43,1s-.26.69-.38,1-.32.82-.46,1.23c-.05.16,0,.08,0,.06l0-.07,0-.16a1,1,0,0,0,0-.34,3.87,3.87,0,0,0-1.57-2.79c-2.08-1.86-6.09-3.33-10.95-4A56,56,0,0,0,197.39,157.29Z"
        transform="translate(-20.78 -9.24)" />
    </g>
  </g>
  <path class="cls-8"
    d="M125.45,424.07S228,489.84,336.35,445,460.53,335.73,460.53,335.73c0-3.68.37-31.69-.43-35.24-.23-1-.85-2.05-1-3.06-.08-.5.13-1,.05-1.53a9.06,9.06,0,0,0-.67-1.65,35.81,35.81,0,0,1-2.34-8.56c-.21-2.16-1.49-3.32-2.49-5.07-1.22-2.16-2.79-3.74-3.66-6.08a10,10,0,0,1-.85-3.66,17.52,17.52,0,0,0-.05-2.81,24.22,24.22,0,0,0-3.45-8.07c-.47-.7-1.05-1.3-1.51-2s-.63-1.73-1.1-2.49c-.8-1.28-2-2.07-2.77-3.42a12.93,12.93,0,0,0-2.36-2.92c-1.32-1.32-1.84-2.93-2.89-4.41a20.81,20.81,0,0,0-6.44-5.43c-.79-.43-1.63-.65-2.43-1.17a29.71,29.71,0,0,0-3.39-2,22.82,22.82,0,0,1-4.62-3.58c-2.13-1.94-4.06-4.2-6.09-6.26s-3.13-4.52-5-6.57c-2.11-2.38-3.47-5.46-5.62-7.84-2.69-3-6.37-4.58-9.73-6.66-2.72-1.68-5.43-2.9-8-4.72-1.37-1-2.78-1.5-4-2.67-1.07-1-2-2-3-3.08-1.21-1.39-2.45-2.6-3.6-4.07-.64-.82-1.53-1.45-2.13-2.3a8.13,8.13,0,0,1-.89-2.2c-.42-1.17-1-2.59-2.23-3.09-1.85-.77-4.55-.78-6.48-1a11.6,11.6,0,0,0-8.74,3.09c-1.06.94-2.27,1.5-3.39,2.35-1.33,1-2.28,2.28-3.55,3.34a14.59,14.59,0,0,0-4.07,4.77,40.84,40.84,0,0,1-2.37,4.37c-1.53,2.28-2.58,4.94-4.47,7a31.49,31.49,0,0,1-8.9,6.63c-1.59.84-2.45,2.32-3.62,3.62a12.78,12.78,0,0,0-2.12,2.53c-1.25,2.41-3.29,4.06-4.85,6.21s-3.07,4.37-4.39,6.61a36.92,36.92,0,0,1-4.47,5.45c-1.72,1.92-3.81,3.39-5.63,5.2-1.39,1.38-2.67,2.87-4,4.33a56.32,56.32,0,0,1-7,6.5c-3.82,3.13-9.1,5.06-12,9.22a45.1,45.1,0,0,0-5,9.46c-.59,1.46-.74,3-1.26,4.42A17.49,17.49,0,0,1,270,280a27.44,27.44,0,0,1-6.68,8.16,79,79,0,0,1-11.43,7.6c-2.66,1.43-5.39,2.48-7.89,4.21-1.22.84-2.37,1.72-3.54,2.62-2.63,2-5.43,3.78-8.09,5.77-2,1.48-3.69,3.26-5.72,4.62-1.51,1-2.69,2.34-4.21,3.31a45.82,45.82,0,0,1-6,3.6,47.21,47.21,0,0,0-7.45,4c-1.62,1.08-3.56,1.63-5,3-2.53,2.49-4.59,5.46-8,6.77-2.51,1-5.78,1.48-8,3a34.3,34.3,0,0,0-4.11,4.15,27.14,27.14,0,0,0-3.95,4.67,41,41,0,0,1-3,4.48c-2.35,2.87-49.18,65.08-51.53,68Z"
    transform="translate(-20.78 -9.24)" />
  <path class="cls-3"
    d="M460.1,300.49c-.23-1-.85-2.05-1-3.06-.08-.5.13-1,.05-1.53a9.06,9.06,0,0,0-.67-1.65,35.76,35.76,0,0,1-2.34-8.57c-.21-2.15-1.49-3.31-2.49-5.06-1.22-2.16-2.79-3.74-3.66-6.08a10,10,0,0,1-.85-3.66,17.52,17.52,0,0,0-.05-2.81,24.22,24.22,0,0,0-3.45-8.07c-.47-.7-1.05-1.3-1.51-2s-.63-1.73-1.1-2.49c-.8-1.28-2-2.07-2.77-3.42a12.93,12.93,0,0,0-2.36-2.92c-1.32-1.32-1.84-2.93-2.89-4.41a20.81,20.81,0,0,0-6.44-5.43c-.79-.43-1.63-.65-2.43-1.17a29.71,29.71,0,0,0-3.39-2,22.82,22.82,0,0,1-4.62-3.58c-2.13-1.94-4.06-4.2-6.09-6.26s-3.13-4.52-5-6.57c-2.11-2.38-3.47-5.46-5.62-7.84-2.69-3-6.37-4.58-9.73-6.66-2.72-1.68-5.43-2.9-8-4.72-1.37-1-2.78-1.5-4-2.67-1.07-1-2-2-3-3.08-1.21-1.39-2.45-2.6-3.6-4.07-.64-.82-1.53-1.45-2.13-2.3a8.13,8.13,0,0,1-.89-2.2c-.42-1.17-1-2.59-2.23-3.09-1.79-.74-4.36-.78-6.27-1a34.71,34.71,0,0,1,5.16,18.61,50.4,50.4,0,0,1,1.66,13.32A66.91,66.91,0,0,1,366,230c.05.22.08.43.12.64A35.09,35.09,0,0,1,371,247.09c0,.53,0,1.07,0,1.6,4.63,4.77,9.09,9.67,12.17,16s5.92,13.08,7.17,20.09c1.11,6.2,1.53,12.38,2.11,18.59,1.48,7.8,3.88,15.4,5.31,23.23a87.93,87.93,0,0,1-2.53,42.27c-3.23,10.85-5.62,22.65-11.39,32.49a56.06,56.06,0,0,1-11.26,13.5c-1.49,1.3-3,2.57-4.4,3.93a30.6,30.6,0,0,1-11,10.67,29.72,29.72,0,0,1-.41,6.34c90-44,103.78-100,103.78-100C460.54,332.05,460.9,304,460.1,300.49Z"
    transform="translate(-20.78 -9.24)" />
  <path class="cls-4"
    d="M124.19,426.23c4,2.55,8.2,4.77,12.41,6.93a278.73,278.73,0,0,0,33.81,14.54,269.93,269.93,0,0,0,49.5,12.57,231.66,231.66,0,0,0,60.55,1.54,210.76,210.76,0,0,0,32.93-6.31,239.18,239.18,0,0,0,33.48-12.37A301.21,301.21,0,0,0,400.11,413a216,216,0,0,0,34.25-30.16,158.82,158.82,0,0,0,19.2-25.76,103.64,103.64,0,0,0,8.18-17,34.39,34.39,0,0,0,1.13-3.43A7.49,7.49,0,0,0,463,335c0-2.37,0-4.75,0-7.12,0-7,.09-14-.08-20.94a41.4,41.4,0,0,0-.45-6.86,21.23,21.23,0,0,0-.78-2.33c-.41-1.27-.14-2.49-.69-3.79a33.86,33.86,0,0,1-2.4-7.8,12.54,12.54,0,0,0-.92-3.66,37.31,37.31,0,0,0-2-3.18c-1.36-2.24-3.09-4.23-3.86-6.77a13.84,13.84,0,0,1-.28-3.69,14.38,14.38,0,0,0-.93-4.19,25.26,25.26,0,0,0-3.63-6.89,16.77,16.77,0,0,1-1.68-3.09,17.73,17.73,0,0,0-2.53-3.2c-.76-.93-1.31-2-2.11-2.93a19.13,19.13,0,0,1-2.41-3,19.39,19.39,0,0,0-5-5.94c-2.18-1.73-4.63-2.75-6.95-4.22-1.08-.69-2.24-1.21-3.31-1.89a23,23,0,0,1-3.05-2.53c-2.21-2-4.23-4.25-6.28-6.43-1.88-2-3.21-4.45-5-6.57s-3-4.56-4.7-6.72c-3.35-4.28-8.68-6.82-13.33-9.44-2.61-1.46-5.1-3.06-7.67-4.57s-4.2-3.75-6.09-5.81c-1.66-1.8-3.74-3.59-4.56-5.9-.88-2.49-2.23-4.41-4.89-5.13-5-1.37-10.88-1.27-15.2,1.82a52.5,52.5,0,0,0-6.54,5.05c-1.89,1.89-4.05,3.52-5.57,5.76a33,33,0,0,0-2,3.61c-.68,1.31-1.52,2.52-2.26,3.8a25.58,25.58,0,0,1-4.67,6.43,37.7,37.7,0,0,1-6.79,4.63c-2.18,1.28-3.81,3.53-5.45,5.41-.86,1-1.38,2.13-2.14,3.17s-1.69,1.95-2.52,2.93a59.81,59.81,0,0,0-5.14,7.32,37.74,37.74,0,0,1-5.32,6.63c-2.06,2.11-4.43,3.86-6.44,6-3.79,4.09-7.44,8.18-12.2,11.2a71.07,71.07,0,0,0-6.1,4.07,21.55,21.55,0,0,0-5,5.8,46.61,46.61,0,0,0-3.94,8.06c-.47,1.26-.65,2.6-1.08,3.87a19.06,19.06,0,0,1-1.9,3.45c-3,4.93-7.19,8.21-12,11.3-5.07,3.29-10.69,5.43-15.51,9.12-2.39,1.83-4.88,3.5-7.33,5.24s-4.44,3.7-6.77,5.4c-2.16,1.58-4.16,3.28-6.39,4.75a80.83,80.83,0,0,1-7.58,4c-2.52,1.3-5,2.79-7.43,4.21-2.21,1.28-3.74,3.32-5.52,5.1a13.39,13.39,0,0,1-6.16,3.5,19.09,19.09,0,0,0-6.92,3.15,52.87,52.87,0,0,0-5.63,5.86c-1.9,2.13-3.14,4.64-4.84,6.91-.63.85-1.29,1.67-1.94,2.5-2.44,3.19-4.86,6.39-7.29,9.6q-11.7,15.45-23.38,30.92c-6.05,8-12.07,16-18.18,24-.15.21-.31.41-.47.62l0,.05a5.19,5.19,0,0,0-1,1.6,13.68,13.68,0,0,0-.09,3.56v3.21c0,3.22,5,3.22,5,0V418l-.73,1.77c4.76-5.87,9.18-12,13.74-18.06l23.4-31q4.77-6.31,9.55-12.61l3.27-4.3,1.07-1.39c.31-.4-.4.51.06-.07l.3-.38a52.56,52.56,0,0,0,3.19-4.66,42.91,42.91,0,0,1,4.94-5.83,12.46,12.46,0,0,1,5.86-4.1c2.37-.75,4.84-1.31,6.92-2.74a33.83,33.83,0,0,0,5.2-4.88c1.8-1.9,4.09-2.81,6.28-4.2a82.61,82.61,0,0,1,7.48-3.87,39.1,39.1,0,0,0,7-4.56c4.24-3.45,8.47-6.87,13-10,2.47-1.72,4.77-3.69,7.3-5.33,2.34-1.51,4.94-2.56,7.39-3.87,5-2.67,10.39-6,14.31-10.16a35.25,35.25,0,0,0,4.42-6,25.34,25.34,0,0,0,1.88-3.37c.55-1.32.76-2.72,1.18-4.09,1.47-4.7,4.3-9.93,8.39-12.82,2-1.38,4.07-2.53,6.05-3.89a54.65,54.65,0,0,0,6.08-5c2.11-2,3.92-4.17,5.89-6.27s4.24-3.78,6.24-5.81a40.27,40.27,0,0,0,5.31-6.36,79,79,0,0,1,4.81-7.19,60.65,60.65,0,0,0,4.59-5.88,26.59,26.59,0,0,1,2.4-2.81,9.53,9.53,0,0,1,2.69-2.57c4.7-2.61,9-5.84,11.78-10.56,1.42-2.43,2.92-4.83,4.19-7.35s2.93-3.94,4.91-5.83a30,30,0,0,1,2.51-2.41c1.18-.9,2.46-1.62,3.61-2.56a9.56,9.56,0,0,1,6.72-2.37c1.54.1,4.89-.15,6,1.06.65.71.79,2,1.14,2.85a10,10,0,0,0,2.39,3.18c2,2.05,3.75,4.36,5.77,6.41a37.91,37.91,0,0,0,6.31,4.75c4.56,3.07,9.67,5.29,14.21,8.4a19.31,19.31,0,0,1,5.2,5.82c1.46,2.29,3.24,4.3,4.76,6.54a62.71,62.71,0,0,0,11.27,12.31,48.25,48.25,0,0,0,6.72,4.4c2.17,1.3,4.35,2.15,6.26,3.89s2.8,4.12,4.45,6.11a29.8,29.8,0,0,1,2.22,2.55,29.65,29.65,0,0,0,2.55,3.25,15.83,15.83,0,0,1,1.48,2.9c.6,1.08,1.51,2,2.15,3a16.66,16.66,0,0,1,2.68,6.83,36.28,36.28,0,0,0,.15,3.75,15.34,15.34,0,0,0,1.34,3.93,55.46,55.46,0,0,0,4.11,6.53,7.46,7.46,0,0,1,1.38,2.72c.26,1.35.38,2.69.74,4s.82,2.65,1.29,4c.23.64.49,1.26.73,1.9a3.24,3.24,0,0,1,.19,1.46c0,1.35.68,2.45,1,3.72.05.18.08.37.13.55s-.05-.62,0,0c.06,1,.14,1.92.18,2.88.13,3.08.16,6.17.18,9.26,0,6.4,0,12.81-.05,19.21a21.88,21.88,0,0,0,0,2.56c.09.66.23-.55.07-.22a5.5,5.5,0,0,0-.25.88c-.45,1.48-1,2.93-1.54,4.36-.21.54-.43,1.08-.65,1.62-.17.39.22-.52,0-.12l-.19.43-.42,1c-.62,1.4-1.28,2.78-2,4.15a134.86,134.86,0,0,1-14,22,189.6,189.6,0,0,1-26.87,27.8,258,258,0,0,1-43.83,29.72c-19.6,10.69-40.32,19.88-62,25.24a212.31,212.31,0,0,1-61.68,5.67,249.69,249.69,0,0,1-53.19-8.72,278.62,278.62,0,0,1-39.87-14.25,230.65,230.65,0,0,1-22.12-11.23c-1-.56-1.91-1.12-2.85-1.72C124,420.17,121.48,424.49,124.19,426.23Z"
    transform="translate(-20.78 -9.24)" />
  <path class="cls-9"
    d="M40.48,233.77c1-1,1.18-1.67,1.94-2.31a11,11,0,0,0,1.88-2.28c.91-1.25,2.08-2.11,3-3.37A21.15,21.15,0,0,1,49,223.26c.46-.48,1.07-.79,1.49-1.31,1.13-1.38,1.55-3.26,2.81-4.56,2.29-2.35,5.47-3,7.84-5.44,1.57-1.59,3.43-2.41,5.11-3.86,1.43-1.24,2.53-2.89,4-4a13.8,13.8,0,0,0,3.38-3c1.09-1.47,1.63-3.31,2.73-4.79a50.37,50.37,0,0,0,3.7-6.21c.95-1.81,1.52-3.81,2.74-5.42a36.75,36.75,0,0,1,4.43-4.56c2.4-2.18,4.94-3.87,7.29-6.15,3.7-3.6,7.47-8.85,12.65-9.53,3-.39,5.2,3.15,7.12,5.41A39.44,39.44,0,0,1,121,180c1.59,4,3.1,8,6.29,10.63,2.8,2.32,4.85,5.16,7.28,8s5.3,4.31,8.16,6.43c3.27,2.43,7.09,3.69,10.3,6.26a132.43,132.43,0,0,0,11.49,8.54c2.56,1.64,5,3.17,7.45,5a48.89,48.89,0,0,1,7.46,7.42c2,2.37,4.45,4,6.78,6,2.6,2.24,4.85,4.85,7.49,7.06s5.06,4,7.41,6.3c3.24,3.2,7.66,6,10.2,10,2.32,3.66,4.23,8.24,6.09,12.24,2.38,5.14,4.48,10.48,6.74,15.7,2.07,4.77,5.09,8.88,7.48,13.47,1.52,2.92,3.79,4.95,5.43,7.74,1.8,3.07,4.23,5.26,6.13,8.2s3.53,5.88,5.95,8.09c3.64,3.33,6.63,7.45,10.26,10.79A162.81,162.81,0,0,1,271,349.94c3.69,4.18,5.91,9.21,9.08,13.82a48.45,48.45,0,0,0,7.66,9c3.39,3,6.37,7,9.14,10.71,2.17,2.91,4.56,5.43,6.56,8.51a42.59,42.59,0,0,1,3.76,7.1c1.65,3.95,2.91,8.59,5.78,11.6,2.34,2.45,4.12,5.21,6.53,7.6,4.16,4.15,9.29,7.36,13.76,11.1,3.54,3,7.61,4.75,11.51,7,0,0,5.6,6.1-32.5,22.28s-72.82,17.71-129-1.69S54,368,57.64,358.91,14.71,259.45,40.48,233.77Z"
    transform="translate(-20.78 -9.24)" />
  <path class="cls-3"
    d="M342.85,436.37c-3.89-2.27-8-4.06-11.5-7-4.47-3.74-9.6-7-13.77-11.1-2.4-2.39-4.18-5.15-6.52-7.6-2.87-3-4.13-7.65-5.78-11.6a43.34,43.34,0,0,0-3.76-7.1c-2-3.08-4.4-5.6-6.56-8.51-2.77-3.73-5.75-7.72-9.14-10.71a48.45,48.45,0,0,1-7.66-9c-3.18-4.61-5.39-9.64-9.08-13.82a162.93,162.93,0,0,0-11.62-12.14c-3.63-3.34-6.61-7.46-10.26-10.79-2.41-2.21-4.12-5.28-5.94-8.09s-4.33-5.13-6.14-8.2c-1.64-2.79-3.9-4.82-5.42-7.74-2.39-4.59-5.41-8.7-7.48-13.47-2.26-5.22-4.36-10.56-6.75-15.7-1.85-4-3.76-8.58-6.08-12.24-2.54-4-7-6.78-10.2-10-2.35-2.31-4.91-4.21-7.41-6.3-2.65-2.21-4.89-4.82-7.5-7.06-2.32-2-4.73-3.64-6.77-6a48.89,48.89,0,0,0-7.46-7.42c-2.46-1.85-4.89-3.38-7.45-5a132.43,132.43,0,0,1-11.49-8.54c-3.21-2.57-7-3.83-10.31-6.26-2.85-2.12-5.74-3.66-8.15-6.43s-4.48-5.64-7.29-8c-3.18-2.63-4.69-6.65-6.28-10.63a39.44,39.44,0,0,0-6.62-10.11c-1.83-2.15-3.88-5.46-6.7-5.43a35.14,35.14,0,0,1,1,6.84,28.82,28.82,0,0,1-6.19,18.82c0,.36,0,.72.07,1.09.3,7.65-.93,15.26-2.09,22.82a66.1,66.1,0,0,0-.32,7.7c.34,1.36.74,2.71,1.19,4a104.31,104.31,0,0,0,8.33,13.88,99.71,99.71,0,0,0,11.79,11.82c19.37,13.84,41.61,22.92,59.05,39.68,18.33,17.61,27.89,41.61,42.52,61.94,6.5,7.91,13.55,15.46,20.24,23.2a177.41,177.41,0,0,0,20,20.13A81.25,81.25,0,0,0,272,403c2,.75,3.93,1.49,5.88,2.27,8.62,3.49,14.24,6.34,21.5,12.17,5.45,4.37,9.14,10.28,14,15.14a107.84,107.84,0,0,0,14,7.42c3.48,1.39,7,2.73,10.49,4.07C344.94,438.64,342.85,436.37,342.85,436.37Z"
    transform="translate(-20.78 -9.24)" />
  <path class="cls-4"
    d="M40.36,235.54c1.55-1.66,2.88-3.5,4.33-5.24.75-.89,1.63-1.65,2.35-2.57a22.28,22.28,0,0,1,2.21-3,10.15,10.15,0,0,0,2.25-2.59,16.93,16.93,0,0,1,1.6-2.85c1.43-1.66,3.73-2.43,5.52-3.62a24.05,24.05,0,0,0,2.77-2.27,30.23,30.23,0,0,1,2.85-2.05c2-1.4,3.38-3.28,5.22-4.84s3.87-2.88,5.17-5.16c.58-1,1-2.12,1.64-3.11C77,197,77.8,196,78.49,194.8c1.33-2.24,2.35-4.58,3.49-6.91a19.75,19.75,0,0,1,4.81-5.66c2-1.81,4.16-3.39,6.19-5.15,1.73-1.49,3.25-3.18,4.83-4.83a24.79,24.79,0,0,1,4.69-4.11c1.25-.76,3-1.74,4.35-.81,1.51,1,2.57,2.75,3.72,4.14a51.74,51.74,0,0,1,4.43,6c2.54,4.16,3.56,9,6.64,12.87,1.53,1.93,3.57,3.38,5.21,5.22s3.27,4.12,5.15,5.94a47.25,47.25,0,0,0,6,4.58,63.13,63.13,0,0,0,6.45,4c4.77,2.55,8.71,6.13,13.08,9.29s9.18,5.58,13.12,9.21a73.64,73.64,0,0,1,5.05,5.4,48.49,48.49,0,0,0,5.75,5.15c2,1.66,3.85,3.52,5.72,5.35s3.91,3.47,5.94,5.12,3.74,3.33,5.62,5,3.58,3,5.27,4.56c3.63,3.39,5.62,7.87,7.65,12.32,2.29,5,4.48,10.06,6.62,15.15,1.08,2.56,2.13,5.14,3.46,7.59s2.68,4.58,4,6.87a61.83,61.83,0,0,0,4,6.47c1.49,1.94,2.81,3.94,4.22,5.94s3.12,3.79,4.55,5.8,2.59,4.18,4.06,6.16A62.31,62.31,0,0,0,247.7,331c1.78,1.87,3.44,3.84,5.19,5.73,3.63,3.91,7.63,7.45,11.22,11.4a60.77,60.77,0,0,1,5.11,6c1.48,2.11,2.75,4.34,4.06,6.55a61.08,61.08,0,0,0,9.42,12.54c1.85,1.82,3.76,3.51,5.45,5.49s3.24,4.1,4.82,6.19c3.07,4.08,6.44,7.8,8.77,12.39,2.14,4.22,3.16,9.05,5.85,13,1.41,2.05,3.22,3.82,4.78,5.76a46,46,0,0,0,5,5.45c3.85,3.47,8.19,6.35,12.21,9.62a45.89,45.89,0,0,0,6.83,4.56l3.07,1.67c.06,0,1.6,1,1.64.92-.6.58,0-.19,0-.12s-.51-.76-.28-.33c0,0-.26-.82-.12-.22.09.41-.12-.82-.05-.38a1.82,1.82,0,0,1,0,.33c-.05.38.25-.74,0-.25a1.71,1.71,0,0,0-.13.44c-.07.52.32-.52,0-.05-.12.18-.21.39-.32.57s-.27.39-.39.59c-.27.44.34-.4.08-.1l-.31.38a19.93,19.93,0,0,1-1.51,1.54c-.3.28-.62.56-.94.83l-.53.43-.33.26c.19-.15.19-.14,0,0a65.57,65.57,0,0,1-6.72,4.38,184.92,184.92,0,0,1-23.8,11.29,161.45,161.45,0,0,1-22.4,7.21A138.51,138.51,0,0,1,236,467.7a203,203,0,0,1-27.45-5.15,281.84,281.84,0,0,1-29.56-9.1c-14.29-5.33-27.73-12.9-40.54-21.1A384.88,384.88,0,0,1,99.84,404,319.38,319.38,0,0,1,70.45,376.6q-2.6-2.78-5.06-5.67c-.72-.84-1.42-1.7-2.11-2.57l-.46-.59c-.18-.22,0,.07.07.09l-.25-.32-.89-1.2a38.21,38.21,0,0,1-2.62-4c-.15-.28-.3-.55-.44-.83l-.18-.4c-.26-.5.12.34,0,.06-.16-.45-.27-.92-.43-1.37s.14.67,0,.06.17-.24,0,.05a2.67,2.67,0,0,0,.24-.86,11.23,11.23,0,0,0-.09-3.92,63.25,63.25,0,0,0-2.49-9.55c-3.24-10.3-7-20.43-10.38-30.7a291.26,291.26,0,0,1-10.06-37.16,109.53,109.53,0,0,1-2-17.26,66.26,66.26,0,0,1,.24-8,37.93,37.93,0,0,1,1.23-6.75,22.52,22.52,0,0,1,5.58-10.16c2.27-2.29-1.26-5.82-3.54-3.54-7.21,7.27-8.73,18.19-8.52,28,.27,12.6,3.12,25.14,6.46,37.25s7.46,24.11,11.58,36c1.61,4.66,3.23,9.31,4.7,14,.56,1.79,1.1,3.58,1.56,5.4.19.72.36,1.45.52,2.18.06.34.13.67.19,1,0,.15,0,.29.07.44.1.59,0-.46,0-.08s.08,1,.08,1.49-.2.44,0,0a2.68,2.68,0,0,0-.11.49,6.14,6.14,0,0,0,0,3.32c.76,2.9,2.7,5.56,4.46,7.93,6.72,9.05,14.94,17,23.19,24.68a407.76,407.76,0,0,0,36.29,29.8,306.06,306.06,0,0,0,41.55,26c16.38,8.35,34,14.07,51.86,18.31,17.31,4.12,35.21,6.41,53,5a151.62,151.62,0,0,0,46.31-11.74,174.82,174.82,0,0,0,24-11.74c3.42-2.1,7-4.45,9.56-7.64,1.27-1.6,2.44-3.68,1.9-5.8a4,4,0,0,0-.49-1.16c-.76-1.2-2.31-1.72-3.5-2.37a75.33,75.33,0,0,1-6.74-3.92c-2.21-1.52-4.24-3.33-6.38-4.94s-4.12-3.06-6.09-4.71a42.26,42.26,0,0,1-5.6-5.67c-1.51-1.86-3.26-3.64-4.68-5.57-2.88-3.94-3.88-9.07-6.1-13.38-2.4-4.66-5.87-8.44-9-12.61-1.6-2.14-3.2-4.29-4.92-6.34a76,76,0,0,0-5.62-5.73,58.52,58.52,0,0,1-9.36-12.63,76,76,0,0,0-4.14-6.5c-1.67-2.24-3.58-4.3-5.46-6.37-3.65-4-7.73-7.58-11.39-11.57-1.8-2-3.52-4-5.39-5.92a39,39,0,0,1-4.8-5.39c-1.45-2.17-2.75-4.4-4.36-6.45a65,65,0,0,1-4.37-5.82c-1.31-2.11-3-3.92-4.38-6s-2.58-4.56-3.92-6.79a76.73,76.73,0,0,1-4-7.2c-1.24-2.63-2.3-5.35-3.42-8-2.14-5.1-4.38-10.17-6.77-15.17a42.56,42.56,0,0,0-3.63-6.54,31.21,31.21,0,0,0-5.07-5.33c-3.79-3.27-7.48-6.64-11.36-9.81-2-1.66-3.89-3.49-5.77-5.33s-4-3.56-6.06-5.28c-4-3.36-7-7.75-11.24-11-4.42-3.38-9.3-6.09-13.73-9.46-2.25-1.71-4.37-3.63-6.71-5.21-2.16-1.48-4.56-2.54-6.81-3.87a43.91,43.91,0,0,1-11.62-9.59,51,51,0,0,0-5.52-5.86,16.46,16.46,0,0,1-4-5.59c-1-2.19-1.77-4.51-2.89-6.66a43.38,43.38,0,0,0-4.58-6.73c-2.41-3-5.26-7.74-9.59-7.92-4.48-.18-8.42,3.32-11.33,6.31-1.55,1.59-3,3.26-4.67,4.75-2.07,1.88-4.37,3.5-6.45,5.37a27.93,27.93,0,0,0-5.38,5.9c-1.3,2.16-2.15,4.6-3.38,6.81s-2.89,4.45-4.09,6.84-3,3.36-4.85,5-3.2,3.37-5.22,4.73-3.71,3.16-5.84,4.39c-1.94,1.12-4,2.16-5.52,3.9a14.42,14.42,0,0,0-1.75,2.82,7.17,7.17,0,0,1-1.88,2.38,13.26,13.26,0,0,0-2.2,3,30.78,30.78,0,0,1-2.4,2.71c-1.46,1.71-2.76,3.54-4.3,5.18C34.63,234.35,38.16,237.9,40.36,235.54Z"
    transform="translate(-20.78 -9.24)" />
  <circle class="cls-10" cx="233.5" cy="233.5" r="223.5" />
  <path class="cls-11"
    d="M286.33,317.78h-2l-3.6-12.37c-.68-2.42-1.46-5.51-1.5-5.58h0c0,.07-.82,3.16-1.5,5.61l-3.6,12.34h-1.94l-6.42-22.06h-2.21V294h6.59v1.74h-2.41l2.48,8.77c2.08,7.17,3,10.64,3,10.71h.07c0-.07,1-3.47,2.38-8.43l2.72-9.35h1.9l3,10.47c1.09,3.84,2,7.24,2,7.31h.07c0-.07.92-3.54,2.72-9.86l2.75-9.62h-2.45V294h6.5v1.74h-2.21Z"
    transform="translate(-20.78 -9.24)" />
  <path class="cls-11" d="M301.66,316.12v1.66h-5.85v-1.66h2V300.41h-2v-1.67h5.85v1.67h-2v15.71Z"
    transform="translate(-20.78 -9.24)" />
  <path class="cls-11"
    d="M320.39,317.78h-1.8L308,301.46h-.07s.07,2.21.07,4.49v10.17h2v1.66h-5.68v-1.66h2V300.41h-2v-1.67h3.85L318.73,315h.07s0-2.24,0-4.45V300.44h-2v-1.66l5.71,0v1.67h-2Z"
    transform="translate(-20.78 -9.24)" />
  <path class="cls-11"
    d="M332.09,298.74c5.81,0,9.38,3.67,9.38,9.62s-3.57,9.42-9.14,9.42h-7.75v-1.66h2V300.41h-2v-1.67Zm.14,17.38c4.42,0,7.41-2.66,7.41-7.72,0-5.31-3-8-7.62-8h-3.6v15.71Z"
    transform="translate(-20.78 -9.24)" />
  <path class="cls-11"
    d="M344,317.78v-1.66h2V300.41h-2v-1.67h13.71v4.9H356v-3.23h-8.12v6.66H355v1.63h-7.1v7.42h8.29v-3.44h1.74v5.1Z"
    transform="translate(-20.78 -9.24)" />
  <path class="cls-11"
    d="M373.13,317.78l-4.32-8.12c-.75,0-1.39,0-1.8,0h-2.14v6.43h2v1.66H361v-1.66h2V300.41h-2v-1.67h7.18c4.28,0,6.73,2,6.73,5.48a4.87,4.87,0,0,1-4.22,5.1l3.68,6.8h2.14v1.66Zm-4.9-9.59c3.1,0,4.83-1.22,4.83-3.91s-1.84-3.87-4.9-3.87h-3.29v7.78Z"
    transform="translate(-20.78 -9.24)" />
  <path class="cls-11"
    d="M398.32,316.12v1.66h-5.81v-1.66h2v-7.86c0-2.82,0-6.9,0-6.93h0l-5.61,11.56h-1.33l-5.71-11.67h0s.07,4.15.07,7v7.89h2v1.66h-5.68v-1.66h2V300.41h-2v-1.67h4.11l4.36,8.71c1,2,1.59,3.36,1.63,3.36h.07s.64-1.36,1.59-3.3l4.29-8.77h4.11v1.67h-2v15.71Z"
    transform="translate(-20.78 -9.24)" />
  <path class="cls-11"
    d="M401,317.78v-1.66h2V300.41h-2v-1.67h13.7v4.9h-1.73v-3.23h-8.12v6.66h7.1v1.63h-7.1v7.42h8.29v-3.44h1.73v5.1Z"
    transform="translate(-20.78 -9.24)" />
  <path class="cls-11"
    d="M430.08,317.78l-4.32-8.12c-.75,0-1.39,0-1.8,0h-2.14v6.43h2v1.66H418v-1.66h2V300.41h-2v-1.67h7.18c4.28,0,6.73,2,6.73,5.48a4.87,4.87,0,0,1-4.22,5.1l3.67,6.8h2.15v1.66Zm-4.9-9.59c3.1,0,4.83-1.22,4.83-3.91s-1.84-3.87-4.9-3.87h-3.29v7.78Z"
    transform="translate(-20.78 -9.24)" />
  <path class="cls-11"
    d="M435.11,317.78v-1.66h2V300.41h-2v-1.67h13.7v4.9h-1.73v-3.23H439v6.66h7.11v1.63H439v7.42h8.3v-3.44H449v5.1Z"
    transform="translate(-20.78 -9.24)" />
  <path class="cls-11"
    d="M298,334.78c5.07,0,8,2.31,8,6.87s-3,6.83-8.05,6.83h-4.22v8.91h2.45v1.19H290v-1.19h2.48V336H290v-1.19Zm0,12.55c4.42,0,6.73-1.87,6.73-5.68,0-4-2.58-5.68-6.73-5.68h-4.25v11.36Z"
    transform="translate(-20.78 -9.24)" />
  <path class="cls-11"
    d="M308.31,358.58v-1.19h2V340.73h-2v-1.19H321.7v4.63h-1.22v-3.44h-8.87V348h7.75v1.19h-7.75v8.16h9v-3.6h1.22v4.79Z"
    transform="translate(-20.78 -9.24)" />
  <path class="cls-11"
    d="M342.68,358.58h-5.17v-1.19h2l-1.91-5H329l-1.87,5h2v1.19h-5.16v-1.19h1.9l4.93-12.95c1.22-3.16,1.32-3.47,1.39-3.67l0,0h-2v-1.19h4l6.76,17.85h1.87Zm-7.51-12.71c-1.6-4.25-1.8-5.1-1.84-5.14h-.07s-.23.89-1.83,5.14l-2,5.4h7.78Z"
    transform="translate(-20.78 -9.24)" />
  <path class="cls-11"
    d="M359.31,358.58h-3.54v-1.19h1.63l-6.18-9.28-3.71,4v5.3h2v1.19h-5.31v-1.19h2V340.73h-2v-1.19h5.31v1.19h-2v4.93c0,2.62,0,4.86,0,4.9h0c.75-.82,1.6-1.77,2.86-3.13l6.22-6.7h-1.84v-1.19h5.37v1.19h-2l-6,6.46,6.83,10.2H361v1.19Z"
    transform="translate(-20.78 -9.24)" />
  <path class="cls-11"
    d="M364.41,354.06c0,2.38,2.28,3.74,5.17,3.74s4.72-1.43,4.72-3.91c0-3.26-3-3.94-5.27-4.62-2.58-.82-5.68-1.7-5.68-5.31,0-3,2.15-4.76,5.51-4.76,3,0,4.46,1.29,5.1,2.59h0v-2.25h1.12v5.68H374v-1.05c0-2.21-1.94-3.85-5-3.85-2.65,0-4.28,1.3-4.28,3.61,0,2.75,2.48,3.5,5,4.25s6,1.73,6,5.68c0,3.26-2.27,5.1-5.91,5.1-2.65,0-4.49-1-5.27-2.38h-.07v2h-1.09V353h1.16Z"
    transform="translate(-20.78 -9.24)" />
  <path class="cls-11"
    d="M406.6,352.22a10.1,10.1,0,0,1-10,6.74c-6.09,0-10.51-4.63-10.51-12.35,0-7.88,4.53-12.27,10.68-12.27a9.64,9.64,0,0,1,8.29,4.25h0v-3.81h1.12v8.09h-1.19v-1.73c0-1.53-2.82-5.54-8.23-5.54s-9.42,4-9.42,11c0,7.24,4,11.15,9.22,11.15a9,9,0,0,0,8.77-5.85Z"
    transform="translate(-20.78 -9.24)" />
  <path class="cls-11"
    d="M417.62,339.2c5,0,8.67,3.74,8.67,9.86s-3.68,9.9-8.67,9.9-8.61-3.75-8.61-9.9S412.65,339.2,417.62,339.2Zm0,18.56c4.25,0,7.37-3.19,7.37-8.7s-3.12-8.67-7.37-8.67-7.35,3.16-7.35,8.67S413.37,357.76,417.62,357.76Z"
    transform="translate(-20.78 -9.24)" />
  <path class="cls-11" d="M428.6,357.63a1.14,1.14,0,0,1,1.22-1.22,1.24,1.24,0,1,1-1.22,1.22Z"
    transform="translate(-20.78 -9.24)" />
</svg>